<svg id="Capa_1" enable-background="new 0 0 510 510" height="512" viewBox="0 0 510 510" width="512" xmlns="http://www.w3.org/2000/svg"><path d="m505.598 488.27-59.98-372.44-26.52 378.82c-.38 5.41-1.65 10.58-3.66 15.35h71.65c5.58 0 10.65-2.34 14.27-6.59s5.13-9.63 4.24-15.14z"/><path d="m407.559 0h-355.08c-7.88 0-14.42 6.09-14.97 13.95-5.51 78.84-32.58 465.58-33.31 475.99-.76 10.84 7.81 20.06 18.7 20.06h347.57c9.81 0 18.02-7.66 18.7-17.44l33.36-476.51c.6-8.68-6.27-16.05-14.97-16.05zm-138.61 416.81h-138.06c-8.29 0-15-6.72-15-15 0-8.29 6.71-15 15-15h55.72l29.09-242.48-41.31 35.01c-6.32 5.35-15.76 4.59-21.14-1.74-5.36-6.32-4.57-15.79 1.75-21.14l70.45-59.71c10.37-8.79 26.2-.29 24.59 13.23l-33.22 276.83h52.13c8.29 0 15 6.71 15 15 0 8.28-6.71 15-15 15z"/></svg>